<svg width="37" height="37" viewBox="0 0 37 37" fill="none" xmlns="http://www.w3.org/2000/svg">
<path opacity="0.25" fill-rule="evenodd" clip-rule="evenodd" d="M18.5 36C28.165 36 36 28.165 36 18.5C36 8.83502 28.165 1 18.5 1C8.83502 1 1 8.83502 1 18.5C1 28.165 8.83502 36 18.5 36Z" stroke="white" stroke-width="1.5"/>
<path d="M14.4835 14.9671C15.3029 14.9671 15.9671 14.3029 15.9671 13.4835C15.9671 12.6642 15.3029 12 14.4835 12C13.6642 12 13 12.6642 13 13.4835C13 14.3029 13.6642 14.9671 14.4835 14.9671Z" fill="white"/>
<path d="M15.7198 15.9581H13.2473C13.1108 15.9581 13 16.0689 13 16.2054V23.6231C13 23.7596 13.1108 23.8704 13.2473 23.8704H15.7198C15.8563 23.8704 15.9671 23.7596 15.9671 23.6231V16.2054C15.9671 16.0689 15.8563 15.9581 15.7198 15.9581Z" fill="white"/>
<path d="M23.0876 15.5468C22.0308 15.1848 20.7089 15.5028 19.9162 16.0729C19.889 15.9666 19.7921 15.8875 19.6769 15.8875H17.2043C17.0678 15.8875 16.957 15.9983 16.957 16.1347V23.5525C16.957 23.689 17.0678 23.7998 17.2043 23.7998H19.6769C19.8134 23.7998 19.9241 23.689 19.9241 23.5525V18.2216C20.3237 17.8774 20.8385 17.7676 21.2598 17.9467C21.6683 18.1192 21.9022 18.5406 21.9022 19.1018V23.5525C21.9022 23.689 22.013 23.7998 22.1495 23.7998H24.622C24.7585 23.7998 24.8693 23.689 24.8693 23.5525V18.6039C24.8411 16.5719 23.8852 15.8197 23.0876 15.5468Z" fill="white"/>
</svg>
