<?xml version="1.0" encoding="utf-8"?>
<!-- Generator: Adobe Illustrator 24.1.0, SVG Export Plug-In . SVG Version: 6.00 Build 0)  -->
<svg version="1.1" id="_Layer_" xmlns="http://www.w3.org/2000/svg" xmlns:xlink="http://www.w3.org/1999/xlink" x="0px" y="0px"
	 viewBox="0 0 602.7 174.6" style="enable-background:new 0 0 602.7 174.6;" xml:space="preserve">
<style type="text/css">
	.st0{fill:#CF202E;}
	.st1{fill:#9EA1A2;}
</style>
<path class="st0" d="M482.8,149.8h-2.1l-2-4.4h-9.2l-2,4.4h-2l7.8-16.8h1.8L482.8,149.8z M474.1,135.2l-3.9,8.5h7.7L474.1,135.2z"/>
<path class="st0" d="M497.8,149.8l-4.9-6.5H488v6.5h-1.9v-16.7h7.3c0.9,0,1.7,0.1,2.5,0.4c0.7,0.2,1.4,0.5,1.9,1
	c0.5,0.4,1,1,1.2,1.6c0.3,0.6,0.4,1.3,0.4,2c0,0.6-0.1,1.3-0.3,1.9c-0.2,0.5-0.6,1-1,1.4c-0.4,0.4-0.9,0.8-1.5,1
	c-0.6,0.3-1.2,0.5-1.9,0.6l5.2,6.8L497.8,149.8z M496.5,135.8c-0.9-0.6-2.1-0.9-3.2-0.9H488v6.8h5.2c0.6,0,1.2-0.1,1.8-0.2
	c0.5-0.1,1-0.4,1.4-0.7c0.4-0.3,0.7-0.7,0.9-1.1c0.2-0.5,0.3-1,0.3-1.5C497.7,137.3,497.2,136.3,496.5,135.8z"/>
<path class="st0" d="M512,145.3h-0.1l-6.2-8.9v13.5h-1.9v-16.7h2l6.2,9.1l6.2-9.1h1.9v16.7h-1.9v-13.5L512,145.3z"/>
<path class="st0" d="M537.4,134.9H527v5.7h9.3v1.7H527v5.8h10.5v1.7h-12.4v-16.7h12.3V134.9z"/>
<path class="st0" d="M553.7,133.1h1.9v16.7H554l-11-13.7v13.7h-1.9v-16.7h1.9l10.7,13.4L553.7,133.1z"/>
<path class="st0" d="M562.6,133.1v16.7h-1.9v-16.7H562.6z"/>
<path class="st0" d="M583.2,149.8h-2.1l-2-4.4h-9.3l-2,4.4h-2l7.8-16.8h1.8L583.2,149.8z M574.5,135.2l-3.9,8.5h7.8L574.5,135.2z"/>
<path class="st0" d="M562.3,36.4c10.4,0,16,4.8,16,4.8l-2.3,1.9c0,0-4.3-3.6-12.3-3.6c-5.8,0-9.9,4-9.9,9.6c0,7.1,7,13.6,15.3,22
	c7.2,7.4,15,15.7,15,25.8c0,13.1-12,21.1-27.1,21.1c-7.3,0-12.5-1.8-17.1-5.5l2-2.4c4.1,3.3,9.2,5.1,14.5,4.9
	c7.6,0,13.4-3.9,13.4-10.4c0-6.9-7.6-14.8-15-22.3c-8.4-8.6-16.5-17.3-16.5-26.8C538.2,43.8,548,36.4,562.3,36.4 M486.3,57.4
	c-19.1,0-29.6,13.2-29.6,30.2c0,18.7,10.8,30.3,29.8,30.3c11.7,0,16.9-5.4,16.9-5.4l-2-1.9c-3.1,2.2-6.9,3.4-10.7,3.5
	c-11.8,0-15.8-12.1-15.8-26.7c0-16.8,4.1-26.6,14.6-26.6c3.5,0,7,1,9.9,2.9l2-2.1C501.4,61.6,496.4,57.4,486.3,57.4 M222.9,117.9
	c21,0,35.4-14.7,35.4-36c0-25.1-21.2-42.8-44.6-42.8c-25.4,0-43.9,17.6-43.9,42.2c-0.1,8.7,2.3,17.3,6.9,24.7l2.5-1.2
	c-3.3-6.3-5.1-13.4-5.1-20.6c0-20.8,15.3-32.6,34.5-32.6c19,0,33.2,13,33.2,32.3c0,17.8-10,30.7-26.2,30.7V70.7h-16.9v72.5h16.9
	v-25.7C218,117.8,220.4,117.9,222.9,117.9 M304.5,116.6h16.9V59.2h-16.9v42.2c0,6.2-6.2,11.7-12.5,11.7c-6.5,0-10-4.4-10-13.2
	c0-9.9,7.3-40.7,7.3-40.7h-16.9c0,0-7.1,30.8-7.1,40.2c0,11.2,8.1,18.5,20.2,18.5c9.4,0,16-4.2,19.1-9.3V116.6z M401.1,116.6H418
	V25.5h-16.9L401.1,116.6z M364.2,117.9c-6.7,0-11.4-3-13.9-6.9v5.6h-16.9V25.5h16.9v39c2.5-4.4,8.3-7.1,15.6-7.1
	c15.6,0,26.2,10.6,26.2,28C392.2,105.2,381,117.9,364.2,117.9 M360.9,114.4c11.7,0,13.7-15.6,13.7-28.8c0-14.7-4.5-25-12.9-25
	c-5.5,0-10.6,4.2-11.5,12.5v30.2C350.3,108.9,355.2,114.4,360.9,114.4 M430.1,59.3h16.9v57.4h-16.9L430.1,59.3z M438.6,32.8
	c5.4,0,9.2,3.8,9.2,8.9s-3.8,8.9-9.2,8.9s-9.1-3.8-9.1-8.9S433.3,32.8,438.6,32.8 M511.6,59.3h16.9v57.4h-16.9L511.6,59.3z
	 M520.1,32.8c5.3,0,9.2,3.8,9.2,8.9s-3.8,8.9-9.2,8.9s-9.2-3.8-9.2-8.9S514.7,32.8,520.1,32.8"/>
<path class="st1" d="M108.1,74.8c1.5-4.5,8.5-4.4,11.4-6.3c2.1-1.4,4.1-2.8,4.2-9.3c0.1-5.6,2.7-7.1,4.3-7.6c0-1.6-2.4-0.5-4.4,1.1
	c2.9-7.2,9-1.2,9-1.2c-3.6-6.3-8.8-3.4-10.6-0.3s-0.5,10.2-4.3,12c-3.8,1.8-5.8-1.5-8.5-0.7c-3.9,1.1-4,6.3-8,4.6
	c3-1.9,2.9-3.7,4.9-5.9c4.2-4.6,11.1,0.5,12.6-12.5l0.7,2.5c7.2-9.7,15.6-1.2,14.4,1.5c-10-1.8-7.9,6.1-8.9,11.5h7.3L108.1,74.8z
	 M121.7,61.4c1.1,7.2-14,4.5-15.8,10.4C108.9,62.3,120.2,68.3,121.7,61.4 M129.9,122.2l-1.3-1.3c1.8,0.3,3.9-1,5.1-1.8
	c-2.4,1.4-5.4,0.6-7.5-1.1l1.1,1.8c-5.6-1.5-5-10.5-8.3-13.4c-2.8-2.5-6.1-1.2-10.4-4.5s-6-11.9-14-17.3
	c10.8-3.1,14.4,16.4,24.7,16.4c5.2,0,7.9-4.3,12.5-5.1c3.2-0.5,6.8-0.2,7.4,2.7c0.3,1.9,0.1,3.8-0.6,5.5c1.1-1.3,1.6-3,1.6-4.7
	c0-5.9-5.9-5.8-7.9-5.6c-4.6,0.4-5.7,3.3-11.4,2c-7.2-1.7-8.7-14.2-17.1-15c4.4-3.7,8.6,3,12.6,2.9c2.9,0,3.9-2.4,5.8-7
	c2.2-5.4,5.2-1,7.7,1.3s6.1,1.4,8.2-0.4c-0.6,1.7-2.5,1.7-1.8,2.8c0.3,0.5,0.8,0.3,1.4-0.2c2.8-2.6,3.4-9.3,0.4-10.9
	c2.3,10.7-7.1,8.2-6.9,6.7c1.7,0.6,4.7-1.2,3.5-1.2c-8.2,0-6.9-4-11.4-3.6c0,0-3.7-0.2-6,5.8c-1.4,3.8-5.3-1.5-9.8,0
	c3-4,5.3-0.7,7.8-2.3s5.4-6.9,11.3-4.3l3.2-2.8l-2.1,3.4c6.2,4.1,9.7,3.7,9.1-3.9c8,4.6,3.6,15.3-2.4,15.2c-3.6,0-4.8-1.8-6.8-2.6
	c-1.4-0.5-2.6,0.6-4,2l5.8,2.1l-6.9-1c-2.1,2.1-5.2,3.9-9.7,1.9l0.9,1.6H138L121.3,94c4.5,0.9,10-4.6,16.2-0.8
	c6.1,3.6,3.3,11.9,0.8,11.9c-2.3,0,2.1-7.4-4.1-7.3c-2.3,0.1-4.1,1.9-6.3,3.7l2,5l-3.3-4.1c-1.8,1.3-3.7,2.3-5.9,2l11.5,6.8h-7.9
	c-0.2,1.7,0.1,3.4,0.9,4.9l0.8-0.3c0.6,1.3,4.1,3.4,9.1,2.5c-1.9,7.2-12.2,5.1-14.2,3.1l0.1,2.6c-4.5-11.2-8-11.9-14.8-11.9
	l15.8,15.9l-3.8-0.8c1.1,4.4-4.2,12.2-8,12.7c-1.5,0.2,2.7-2.9,2.7-7.4s-5-5.8-7.1-7.6c-3.8-3.2-5.4-9.7-6.9-12.2
	c2.7,1.4,5.9,6.7,8.3,9.3s7.4,4.7,7.4,8.8c0.1,2.2-0.5,4.4-1.7,6.2c1.6,0,6.5-8.6,1.8-12.7c-2.3-2-3.8-3.3-6.1-5.3
	c-3.1-2.6-5.8-5.7-8.1-9c-4.3-6.4-11.3-11-8-16.1c-5,8,4.2,14,5.2,20.2s4.4,13,8,13.9c-0.6,0.2-1.2,0.2-1.8,0.2l-1-0.1
	c-5.8-1.1-10.7-20.3-10.7-17.5c0,5,8.8,27.9,8.8,27.9l-8-5.1c-1.3,5.2,4.5,5.5,3.9,10.2c-0.7,5.4-6.9,4.9-6.8,3.7
	c0.1-0.8,2.5,0,2.5-1.2s-3.9-2-5.5-3.9c-1-1.2-1.9-2.1-2.2-6.6l-2.4,3.2c0,0,3-7.7,3.4-9.7s-4.2-2.2-5.6-6.2l-0.9,19.6l-5.9-8
	c-1.1,8.8-13.5,8.2-14.3,7.3c9-6.7,4.6-9.6,2.4-15.3l-4.8,2.8l4.1-4.7c-0.3-1.2-0.4-2.4-0.3-3.6c0.5-6.9,10.6-6.3,4.5-13.2
	l-16.3,26.2l2.1-14.1c-9.7,3.5-6.3,4-9.1,10.3c-2.3,5.2-6.9,3.8-8.2,1.6c-2-3.2,0.5-5.6,3.1-5.4c1.6-1.3-3-3.4-1.2-7.6
	c2.7-6.1,10.3-3.4,14.2-8.5l-9.5,1l10.6-2.9c0.9-2.3,1.3-4.8,1.2-7.3l-20.3,11.2l6.2-10.2c-11.3,9.3-14-2.4-19.5-1.4
	c1.4-6.3,6.6-2.7,9-2.7s5.7-4.1,6.9-5l-12.1-6.5h30.2c2.3,0,3.5-0.8,2.4-2.1c-1.4-1.7-7,0.3-13.3,0.8c-3,0.3-6-0.8-8.1-3L28.2,84
	l4.5-2.4c-3.1-3.1-5.5-6.2-12.8-1.8c-2.3-5.9,3.2-10.9,8.1-11c7-0.2,8.3,8,13.7,5.1l-9.2-10.8l15,7.4l-1.9-5.7l-6.5-1.7l6.3,0.5
	c-1.8-5.9-8.3-4.8-11-7.7c-5.9-6.2,0.5-14.2,5.3-11.9c-3.3,7,2.8,10.1,7.9,9.1l-2.4-8.2l19.4,19.6c-4.5,3.4-9.4,0.4-11.8-6.9
	c-2.3-7-7.1,0.9-14.5-1.8c3.9,1.4,8.9-0.6,10,7.7c0.7,5.5,3.4,10.5,9.4,9.1c-2.3,3.4-7.8-0.8-11.4,4.2c6.1-0.7,8.3,4.4,12.6,7.3
	c-5.2-3.6-1.5-7.3-7.9-8.2c2.3,0.3,4.2,0.5,6.4-0.2s3.5-2.4,3.3-4.7c1.6,0.4,2.5,2.1,2.1,3.7c-0.1,0.4-0.3,0.8-0.6,1.1
	c-1.1,1.5-3.4,2.3-3.5,3.6c0,0,0.1-0.2,1.6-1c-1.2,1.6-0.4,3.7,0.9,5.1c-0.1-0.9-0.1-2.4,0.5-2.7c1,2.3,3.2,3.5,4.6,3.1
	c-2.6-2.8-0.8-5.1-0.8-5.1c-1.1,0-2.3,1.6-2.3,1.6c-0.4-1.6,0.4-3.2,2-3.7c-0.1-0.3-0.1-0.6,0-0.8c2.2,2.2,6.2,2.1,7.3,2.9
	c0,0-5.8-0.8-5.1,2.3c0.7,3,9.7,1,8.5-8.1c0,0,1.6-0.2,2.1,0.4s-0.1,2.2-0.1,2.2l1.2,0.5c0,0-1.2,4.5-0.9,5.4
	c0.2,0.5,2.2,0.5,2.5,0.6s0.2,0.5,0,0.5h-3.3c-0.5,0-1.9,1.7-0.6,2c2.2,0.6,4.5,0.6,6.7,0c0,0-0.3,1.3-3.4,1.3
	c-1.5,0.1-2.9-0.1-4.3-0.5c-0.7,1.9,3.4,3.9,3.8,4c0.4,0.1,0.8,0.1,1.2,0c0.1-0.1,3-2.4,3-2.4l-0.9,1.4c3.8-0.9,3.3-2.8,1.9-3.2
	c0-0.9,2.2-0.7,2.1,0.9c-0.1,2.1-5.5,3.3-6.2,4.7c-0.4,0.9,0.7,3.9,1.6,4.2c1.4,0.3,2.8,0.2,4.1-0.3c0.3-0.2,3.2-5.6,3.2-6.9
	s-3-7.9-3-7.9c0.6-1.7,3.1-1.2,5.4-2.7c-3.8,3.9-1.2,4.4,1.6,4.6c-2.1,1.8-3.6,2.9-2.7,5.7c12.2,2.7,9.8,16.8,18.6,19.8
	c-7,1.1-12.7-7.8-13.4-11.9c-0.3,4.3,1.3,8.2,4.7,11.7c2.9,3,7.9,2.6,12,2.6c7.2,0.1,4.8,9.4,10.8,11.5
	C125.7,121.9,127.8,122.2,129.9,122.2 M84.1,60.3c-5,2.3-4-3.7-2.6-5.2c1.5,2,3.5,3.7,5.8,4.8c-4.5-7.4,0.6-7.2-0.3-17
	c-0.4-4.9-3.1-6.6-3-11.1c0.1-5.4,8.1-6.9,8.2-4.8c0.1,1.5-5.8,1.7-5.9,7.3c-0.1,5.3,5.8,6.5,5.7,11.7c-0.1,3.3-6.1,6.4-2.4,12.7
	l8.6-24.1L91.7,42c-2.1-2.6-3.8-2.8-3.8-7.5s5.2-5.4,5.2-7.5c0-1.8-2.6-2-4.5-2.1c-3-0.1-8.2,2.4-8.2,7.9s3.7,8.2,0,13.3l-3.2-4.8
	l2.3,6.1c-1.5,2-2.2,4.5-2.1,7C77.5,63,84.6,63.8,84.1,60.3 M84.1,39.8c3.1,10-4.1,10-4.1,14.9C78.8,48.9,85.8,45.1,84.1,39.8
	 M98.3,75c0.5,1.1,2.6-1.4,5.8-0.4C102.6,73.5,98,73.6,98.3,75 M94.8,55c-1.2,3.2-4.4,4-6,6.8c0.9,0,5.5-1.8,7.2-4.7
	s0.1-10.4,5.5-12.4c5.6-2.1,11.5-5.2,4.9-12c10.2,2.6,4.5,13.5,3.3,15s-4.9,4.5-4.9,9.2c0,3.5-3.2,7.6-5.7,8.1
	c2.6,1.1,6.5-4.9,6.5-4.9l12.8-16.4l-7.3,3.8c0,0,2-1.7,2-7.5c0-8.1-8.7-9.6-8.7-7c0.1,1.7,3,2.8,3.1,5.6s-3.8,4.3-6.8,5.2l-1.3-4.5
	v5.1C94.3,46.9,96,51.8,94.8,55 M102.6,50.8c2.7-3.9,5.2-3.3,6.5-7.5c-1.8,3.3-6.4,4-8.3,6.8c-3.2,4.9,1.1,11.8-5.7,13.8
	C103.6,64.2,99.5,54.2,102.6,50.8 M110.8,61.3c2.4-0.6,3.9,1.5,5.8,0.9c0.5-0.1,0.9-0.5,0.8-1c0-0.3-0.3-0.6-0.6-0.8
	c0,0,3.2-3.3,2.2-5.1C116.4,60.6,111.3,60.4,110.8,61.3 M95.9,78.7c0.2,1.5,2.9-1.6,7.9,0.5C102.1,76.7,95.5,76.5,95.9,78.7
	 M60.2,68.2c-10,1.7-4.2-10.4-12-10.9c4.2,2,2.5,4.7,3.1,8.8C52.1,71.1,58.4,71.8,60.2,68.2 M86.3,89.2c-0.6,0.4-2.1,0.9-3.3,1.7
	c-0.1,0.2-0.3,0.9-0.6,1.1C83.7,92.1,86.2,90.4,86.3,89.2 M119.1,83.5c2,0.2,8.4-7.2,6.2-8.1S123.3,81.9,119.1,83.5 M43,54.8
	c-8.9-1.5-6.7-6.5-5.1-9.3C32.5,45,32.3,57.1,43,54.8 M20.6,78.2c0,0,5-4.8,9.3-0.5C26.4,74.2,22.1,73.3,20.6,78.2 M49.1,81.5
	c-5.6,1-13.8-6.3-15.3-8c-0.9-1.1-1.8-2.1-3.5-2.4c-0.1,0-0.1,0.1-0.1,0.3s0.1,0.6-0.1,0.7s-0.4,0-1-0.5c-0.8-0.6-1.8-0.9-2.7-0.7
	c-0.9,0.1-1.8,0.4-2.6,0.9c-0.6,0.5-0.9,1-0.6,1.5c0.3,0.8,1.4,0.2,2.7,0.1c1.1,0.1,2.2,0.3,3.2,0.8c0.8,0.2,1.4,1.2,2.2,2.1
	C35.4,80.7,43.5,83.9,49.1,81.5 M49.7,91.8c4-0.2,7-1.4,7.2-4.4c-1,1.1-3.3,2.6-7.4,2.8s-10.7-4.7-13.3,2.6c5.8-3.2,11.1,3.9,15,0.5
	 M27.9,103.4c2.3,1.7,5.4-1.1,3.9-3.9c-5.4,3-7.2-3.5-10.8,0.8c1.3-0.4,2.6,0.4,5,2.1L27.9,103.4z M56,91.8c-1.9,3-5.2,5.9-9.2,5
	s-10.3-2.3-12.1,3.8C39.3,95.4,48.5,107.9,56,91.8 M38.6,127.3c-0.5,3.1-1.9,2.4-2.2,2.3c-0.2-0.1-0.3-0.4-0.2-0.7c0,0,0,0,0,0
	c0.2-0.2,0.2-0.6,0-0.8c0,0,0,0-0.1,0c-0.3-0.3-2.6,0.4-2.2,2.6c0.3,1.4,1.6,2.2,3,2C38.8,132.5,40.4,130.9,38.6,127.3 M58.8,102.3
	c-0.2-5.7,3.4-13.1,5-13.9c-11.3,6-6.4,16.1-9.6,22c-4.9,8.9-13.5,4-16.4,9.4c-1.8,3.3,3,3.5,3,10.7c0-1.8-0.6-6,2.7-7.7l-1.5,0.1
	c-0.2-0.9-1.2-1.4-2.1-1.2c0,0-0.1,0-0.1,0c1.7-2.9,8.5-0.9,18-9c8.4-7.2,7.9-18.5,10.2-22.8l-2.3,2.2c-3.4,3.6-3.5,9.5-7.7,16.3
	C58.7,107.2,58.9,105.4,58.8,102.3 M75.2,96.5c-0.4,0-0.5,0.2-0.5,0.2s0.2,0.4,0.5,0.4c1.6,0.4,3.2,0.6,4.9,0.6
	c1.7,0,3.3-0.2,4.9-0.6c0.3-0.1,0.5-0.3,0.5-0.4s-0.1-0.2-0.6-0.2c-0.1,0-3.2,0.1-4.8,0.1S75.3,96.5,75.2,96.5 M73.3,86.3
	c0.1,2.1,3.2,2.7,4.4,2.5c-3.9-0.9-3.6-3-2.3-3.5C75.4,84.5,73.2,84.7,73.3,86.3 M71.6,89.1c0.1,0.8,3.7,2.2,3.7,2.2s-0.9,0.7-2.8,0
	c1,1.7,3.3,1.6,3.3,1.6s-0.2,1-2.8,0.3c0.6,1.8,3.4,2.3,4.3,2s2-3.2,1.6-4.2C76.7,90,74.2,89.3,71.6,89.1 M70.1,134
	c0-4.8-1.5-4.5-1.5-10.3c0-6.4,5.4-8.1,5.9-13.1c0.6-6.8-6.1-6.9-3.9-16.4c-2.8,12.5,1.2,11.5,1.2,16s-7.1,5-7.1,12.9
	c0,4.6,2.8,5.9,2.8,10.8s-3.2,6.3-3.2,6.3C65.5,140.3,70,139.4,70.1,134 M73.1,131.7c4.4-5.5,1.6-2.8,3.2-10.2
	c1-4.6,2.4-4.4,3.8-8.2c1.3-3.2,0.7-10.5-4.4-13.9c2.3,3.5,2.8,7.9,1.4,11.9c-1.1,3.9-2.7,4.3-4.4,8.7c-0.8,2.1-1,4.4-0.6,6.6
	L73.1,131.7z M85.3,98.2c3.5,6.1-3.4,8.2-1.3,17.7c1.4,6.4,4.7,5.8,5,10.6c0.3,4.7-2.6,8-0.5,11.2s6.2,4.5,4.9,8.5
	c2.1-3.9-1.9-7-3-11.3c-0.8-3.3,4.2-6.3,2.8-10.6c-0.7-1.8-1.5-3.5-2.4-5.2l-2.5-4.9C85.2,107.7,91.2,103.2,85.3,98.2 M87.3,91
	c-0.1,0.3-1,0.6-2.7,1.3c-0.3,0.5-0.8,1-1.3,1.3C85.3,94.1,87.7,92.1,87.3,91 M84.2,70.6c2.9,0,3.3-1.3,5.5-1.3s3,1.4,4.7,1.4
	s2.8-1.3,2-2.4c-1.1,1.8-3.1-0.7-4.6-0.7c-2.3,0-3.2,0.9-4.7,1.7c-1.7,0.8-3.2,0-2.6-0.9c-1.3,0-2.1-1.6,0.1-3.4
	C80.8,65.4,81.4,70.6,84.2,70.6 M73.4,67.9c-2.2,0-4.7,2.4-5.1,0.8c-0.3-1.2,1.9-3.2,4.8-3.4c-2.4-0.7-6.5,1.6-7.2,4.1
	c-0.8,0.1-2.1-0.9-2.1-0.9c0.7,5.7,6,0.7,8,0.7c1.8,0,7.5,4.1,7.6-1C77.3,70.4,75.9,67.9,73.4,67.9 M55,47.1c0.3-3.8,2.7-7.1,2.7-11
	c0-5.7-6.5-0.3-7.5-2.7c-2.6-6.3,16.6-9.5,16.4,1.7c-0.1,5.9-1.8,12.4,2.8,13.1L72.9,34l3.7,20.5c-3.3-4.2-10-2.5-11.4-9.2
	C64,40.3,70.2,28,56.6,29c15.7,4.8-8.7,18,5.8,26.5c3.9,2.3,5.2,6.3,3.5,8.1c-0.2-5.8-5.9-6.5-8-8.9c-1.5-1.7-2.5-3.8-2.8-6
	l-5.4-2.6L55,47.1z M57.8,33.2c-1.2-4-7.7-2.2-6.4-0.6C52.1,33.3,54.6,31.1,57.8,33.2 M61.7,45.6c-6.4,12,15.7,6.5,12.8,16.8
	C79.5,50.4,59.5,56.6,61.7,45.6 M73.4,77.8c-1.8-1-6.4-1.2-8.3-4.1c2.1-1,4.2-2.8,6-2.4C75.2,72.1,73.8,77.2,73.4,77.8 M70.4,72.1
	c-2.5-0.5-3.3,3-1.4,3.8C69.3,74.5,69.7,73.2,70.4,72.1 M71.9,72.9c-0.3,1.2-0.8,2.3-1.5,3.3C71.9,76.8,73.8,74.3,71.9,72.9
	 M88.4,71.1c1.8-0.4,4,1.5,6.2,2.5c-2,2.9-6.7,3.1-8.6,4.2C85.6,77.1,84.2,71.9,88.4,71.1 M90.6,75.7c1.9-0.7,1.1-4.4-1.4-3.9
	C89.8,73.1,90.3,74.4,90.6,75.7 M89.1,76.2c-0.7-1-1.2-2.2-1.6-3.4C85.7,74.2,87.5,76.8,89.1,76.2"/>
<path class="st0" d="M562.3,36.1c10.5,0,16.1,4.8,16.1,4.8l-2.3,1.9c0,0-4.3-3.7-12.4-3.7c-5.9,0-10,4.1-10,9.8
	c0,7.3,7,13.9,15.3,22.4c7.3,7.5,15,16.1,15,26.4c0,13.4-12,21.6-27.2,21.6c-7.3,0-12.5-1.8-17.2-5.7l2-2.4c4.1,3.4,9.2,5.1,14.5,5
	c7.7,0,13.4-3.9,13.4-10.6c0-7-7.7-15.2-15-22.8c-8.4-8.8-16.6-17.7-16.6-27.4C538,43.6,547.8,36.1,562.3,36.1 M486.1,57.5
	c-19.1,0-29.7,13.5-29.7,30.9c0,19.1,10.8,31,29.8,31c11.7,0,17-5.5,17-5.5l-2.1-1.9c-3.1,2.2-6.9,3.5-10.7,3.6
	c-11.9,0-15.8-12.4-15.8-27.3c0-17.2,4.1-27.2,14.7-27.2c3.5,0,7,1,9.9,2.9l2-2.2C501.2,61.9,496.2,57.6,486.1,57.5 M222.1,119.4
	c21,0,35.4-15,35.4-36.7c0-25.6-21.3-43.7-44.8-43.7c-25.5,0-44,18-44,43.1c-0.1,8.9,2.3,17.6,6.9,25.2l2.5-1.3
	c-3.3-6.5-5.1-13.7-5.1-21c0-21.3,15.3-33.3,34.6-33.3c19,0,33.3,13.3,33.3,33c0,18.2-10.1,31.4-26.2,31.4V71.2h-17v74.1h17V119
	C217.1,119.3,219.6,119.4,222.1,119.4 M303.9,118.1h17V59.4h-17v43.1c0,6.4-6.2,12-12.5,12c-6.5,0-10.1-4.5-10.1-13.5
	c0-10.1,7.3-41.5,7.3-41.5h-17c0,0-7.1,31.5-7.1,41c0,11.5,8.2,18.9,20.3,18.9c9.4,0,16.1-4.3,19.1-9.6L303.9,118.1z M400.7,118.1
	h17V25h-17V118.1z M363.7,119.3c-6.8,0-11.5-3.1-13.9-7v5.7h-17V25h17v39.8c2.5-4.5,8.3-7.3,15.7-7.3c15.7,0,26.3,10.8,26.3,28.6
	C391.7,106.4,380.5,119.4,363.7,119.3 M360.4,115.8c11.7,0,13.8-15.9,13.8-29.4c0-15-4.5-25.5-12.9-25.5c-5.5,0-10.6,4.3-11.5,12.7
	v30.9C349.8,110.2,354.6,115.8,360.4,115.8 M429.8,59.5h17v58.6h-17V59.5z M438.3,32.5c4.9-0.2,9,3.6,9.2,8.4c0,0.2,0,0.4,0,0.6
	c0,5.1-4.1,9.2-9.2,9.2c-5.1,0-9.2-4.1-9.2-9.2c-0.1-4.9,3.7-8.9,8.6-9C437.9,32.5,438.1,32.5,438.3,32.5 M511.4,59.5h17v58.6h-16.9
	L511.4,59.5z M519.9,32.5c4.9-0.2,9,3.6,9.2,8.4c0,0.2,0,0.4,0,0.6c-0.2,5.1-4.4,9-9.5,8.9c-4.8-0.2-8.7-4-8.9-8.9
	c-0.1-4.9,3.7-8.9,8.6-9C519.5,32.5,519.7,32.5,519.9,32.5"/>
</svg>
