<svg width="37" height="37" viewBox="0 0 37 37" fill="none" xmlns="http://www.w3.org/2000/svg">
<path opacity="0.25" fill-rule="evenodd" clip-rule="evenodd" d="M18.5 36C28.165 36 36 28.165 36 18.5C36 8.83502 28.165 1 18.5 1C8.83502 1 1 8.83502 1 18.5C1 28.165 8.83502 36 18.5 36Z" stroke="black" stroke-width="1.5"/>
<path fill-rule="evenodd" clip-rule="evenodd" d="M15.7018 11.048C16.5549 11.0087 16.8269 11 19 11C21.1731 11 21.4451 11.0095 22.2975 11.048C23.1498 11.0865 23.7316 11.2225 24.2407 11.4196C24.7738 11.6211 25.2575 11.936 25.6575 12.3433C26.0647 12.7425 26.3789 13.2255 26.5796 13.7593C26.7775 14.2684 26.9127 14.8502 26.952 15.7011C26.9913 16.5556 27 16.8276 27 19C27 21.1731 26.9905 21.4451 26.952 22.2982C26.9135 23.1491 26.7775 23.7309 26.5796 24.24C26.3789 24.7739 26.0642 25.2576 25.6575 25.6575C25.2575 26.0647 24.7738 26.3789 24.2407 26.5796C23.7316 26.7775 23.1498 26.9127 22.2989 26.952C21.4451 26.9913 21.1731 27 19 27C16.8269 27 16.5549 26.9905 15.7018 26.952C14.8509 26.9135 14.2691 26.7775 13.76 26.5796C13.2261 26.3789 12.7424 26.0642 12.3425 25.6575C11.9355 25.2579 11.6206 24.7745 11.4196 24.2407C11.2225 23.7316 11.0873 23.1498 11.048 22.2989C11.0087 21.4444 11 21.1724 11 19C11 16.8269 11.0095 16.5549 11.048 15.7025C11.0865 14.8502 11.2225 14.2684 11.4196 13.7593C11.6209 13.2255 11.9361 12.742 12.3433 12.3425C12.7426 11.9356 13.2258 11.6207 13.7593 11.4196C14.2684 11.2225 14.8502 11.0873 15.7011 11.048H15.7018ZM22.2327 12.488C21.3891 12.4495 21.136 12.4415 19 12.4415C16.864 12.4415 16.6109 12.4495 15.7673 12.488C14.9869 12.5236 14.5636 12.6538 14.2815 12.7636C13.9084 12.9091 13.6415 13.0815 13.3615 13.3615C13.096 13.6197 12.8918 13.934 12.7636 14.2815C12.6538 14.5636 12.5236 14.9869 12.488 15.7673C12.4495 16.6109 12.4415 16.864 12.4415 19C12.4415 21.136 12.4495 21.3891 12.488 22.2327C12.5236 23.0131 12.6538 23.4364 12.7636 23.7185C12.8916 24.0655 13.096 24.3804 13.3615 24.6385C13.6196 24.904 13.9345 25.1084 14.2815 25.2364C14.5636 25.3462 14.9869 25.4764 15.7673 25.512C16.6109 25.5505 16.8633 25.5585 19 25.5585C21.1367 25.5585 21.3891 25.5505 22.2327 25.512C23.0131 25.4764 23.4364 25.3462 23.7185 25.2364C24.0916 25.0909 24.3585 24.9185 24.6385 24.6385C24.904 24.3804 25.1084 24.0655 25.2364 23.7185C25.3462 23.4364 25.4764 23.0131 25.512 22.2327C25.5505 21.3891 25.5585 21.136 25.5585 19C25.5585 16.864 25.5505 16.6109 25.512 15.7673C25.4764 14.9869 25.3462 14.5636 25.2364 14.2815C25.0909 13.9084 24.9185 13.6415 24.6385 13.3615C24.3803 13.0961 24.066 12.8918 23.7185 12.7636C23.4364 12.6538 23.0131 12.5236 22.2327 12.488V12.488ZM17.9782 21.4662C18.5488 21.7037 19.1843 21.7358 19.7759 21.5569C20.3676 21.378 20.8788 20.9992 21.2223 20.4853C21.5657 19.9713 21.72 19.3541 21.6589 18.739C21.5978 18.1239 21.3251 17.5491 20.8873 17.1127C20.6082 16.8338 20.2707 16.6202 19.8992 16.4874C19.5276 16.3545 19.1312 16.3057 18.7385 16.3444C18.3459 16.3832 17.9667 16.5085 17.6282 16.7114C17.2898 16.9142 17.0005 17.1896 16.7813 17.5177C16.5621 17.8458 16.4183 18.2184 16.3604 18.6087C16.3024 18.999 16.3317 19.3973 16.4462 19.7749C16.5607 20.1525 16.7574 20.5001 17.0223 20.7925C17.2872 21.085 17.6137 21.315 17.9782 21.4662ZM16.0924 16.0924C16.4742 15.7105 16.9275 15.4076 17.4264 15.201C17.9253 14.9943 18.46 14.888 19 14.888C19.54 14.888 20.0747 14.9943 20.5736 15.201C21.0725 15.4076 21.5258 15.7105 21.9076 16.0924C22.2895 16.4742 22.5924 16.9275 22.799 17.4264C23.0057 17.9253 23.112 18.46 23.112 19C23.112 19.54 23.0057 20.0747 22.799 20.5736C22.5924 21.0725 22.2895 21.5258 21.9076 21.9076C21.1365 22.6788 20.0906 23.112 19 23.112C17.9094 23.112 16.8635 22.6788 16.0924 21.9076C15.3212 21.1365 14.888 20.0906 14.888 19C14.888 17.9094 15.3212 16.8635 16.0924 16.0924V16.0924ZM24.024 15.5004C24.1186 15.4111 24.1944 15.3038 24.2468 15.1847C24.2992 15.0656 24.3271 14.9373 24.329 14.8072C24.3309 14.6772 24.3067 14.548 24.2578 14.4275C24.2089 14.307 24.1363 14.1975 24.0443 14.1055C23.9524 14.0135 23.8429 13.9409 23.7223 13.892C23.6018 13.8431 23.4727 13.8189 23.3426 13.8208C23.2125 13.8227 23.0842 13.8507 22.9651 13.9031C22.8461 13.9554 22.7387 14.0312 22.6495 14.1258C22.4759 14.3098 22.3808 14.5543 22.3845 14.8072C22.3882 15.0602 22.4903 15.3017 22.6692 15.4806C22.8481 15.6595 23.0896 15.7616 23.3426 15.7653C23.5955 15.769 23.84 15.674 24.024 15.5004V15.5004Z" fill="black"/>
</svg>
